<svg xmlns="http://www.w3.org/2000/svg" width="224" height="224" viewBox="0 0 224 224">
  <path id="user-red" d="M112,8A112,112,0,1,0,224,120,111.981,111.981,0,0,0,112,8Zm0,43.355A39.742,39.742,0,1,1,72.258,91.1,39.743,39.743,0,0,1,112,51.355Zm0,155.355a86.541,86.541,0,0,1-66.161-30.8A50.352,50.352,0,0,1,90.323,148.9a11.049,11.049,0,0,1,3.206.5A59.8,59.8,0,0,0,112,152.516a59.568,59.568,0,0,0,18.471-3.116,11.049,11.049,0,0,1,3.206-.5,50.352,50.352,0,0,1,44.484,27.006A86.541,86.541,0,0,1,112,206.71Z" transform="translate(0 -8)" fill="#d9534f"/>
</svg>
